<svg version="1.1" id="prefix__Layer_1" xmlns="http://www.w3.org/2000/svg" x="0" y="0" viewBox="0 0 1825.8 1083.2"
    xml:space="preserve">
    <style>
        .prefix__st0 {
            fill: #004fc5
        }
    </style>
    <path class="prefix__st0"
        d="M-32.1-237.2h-460.4L-408-110l41 176.7 42.2-34.3 64.5 243.6 35.5-135.1 27.6 41.6 65.3-211.3 49.4-28.9 50.4-179.5z"
        transform="matrix(1.41503 0 0 1.41503 1235.646 692.616)" />
    <path class="prefix__st0" d="M-266-489.5l-72.4 88.4-89.1 40-65 131.5h452.9L-98-343.2l-66.5-14.2L-266-489.5z"
        transform="matrix(1.41503 0 0 1.41503 1235.646 692.616)" />
    <path d="M-266.4-464.5l-63 77.1-87.1 38.6-49.7 103.5h279l-31.7-79.3-110.1 36.7 69.7-65.2-7.1-111.4z" fill="#fff"
        transform="matrix(1.41503 0 0 1.41503 1235.646 692.616)" />
    <path class="prefix__st0"
        d="M-186.6-753.3h1820.2v26.5H-186.6zM1663.2-753.3h140.1v26.5h-140.1zM-311-753.3h77.9v26.5H-311zM1823-753.3h53.8v26.5H1823z"
        transform="translate(259.58 975.847) scale(.83453)" />
</svg>